<?xml version="1.0" encoding="UTF-8"?>
<!DOCTYPE svg PUBLIC "-//W3C//DTD SVG 1.1//EN" "http://www.w3.org/Graphics/SVG/1.1/DTD/svg11.dtd">
<svg xmlns="http://www.w3.org/2000/svg" version="1.1" width="480px" height="252px" style="shape-rendering:geometricPrecision; text-rendering:geometricPrecision; image-rendering:optimizeQuality; fill-rule:evenodd; clip-rule:evenodd" xmlns:xlink="http://www.w3.org/1999/xlink">
<g><path style="opacity:1" fill="#c65dde" d="M 135.5,72.5 C 143.946,72.8553 152.28,74.3553 160.5,77C 161.5,78 162.5,79 163.5,80C 172.357,80.9946 178.524,85.4946 182,93.5C 187.118,95.8842 188.951,99.7176 187.5,105C 190.422,106.837 192.089,109.504 192.5,113C 192.373,119.105 192.207,125.271 192,131.5C 185.176,142.94 176.01,145.273 164.5,138.5C 155.213,151.351 144.546,152.685 132.5,142.5C 130.358,144.905 127.691,146.238 124.5,146.5C 123.891,151.776 120.891,154.776 115.5,155.5C 109.765,152.653 103.765,150.487 97.5,149C 94.1148,143.625 90.9481,138.125 88,132.5C 87.1218,128.432 87.9551,124.766 90.5,121.5C 88.1016,119.37 86.7683,116.703 86.5,113.5C 90.0193,108.419 92.5193,102.752 94,96.5C 98.478,92.3528 102.645,87.8528 106.5,83C 110.999,81.4969 114.999,79.1635 118.5,76C 124.369,75.1631 130.036,73.9965 135.5,72.5 Z M 136.5,74.5 C 139.693,76.4067 143.026,76.7401 146.5,75.5C 148.167,76.3333 149.833,77.1667 151.5,78C 146.009,83.3228 140.342,88.4895 134.5,93.5C 133.914,93.2907 133.414,92.9574 133,92.5C 132.68,87.977 132.18,83.477 131.5,79C 131.833,78.1667 132.167,77.3333 132.5,76.5C 134.026,76.0057 135.359,75.339 136.5,74.5 Z M 121.5,76.5 C 124.448,76.2229 127.281,76.5562 130,77.5C 130.391,82.8544 130.891,88.1877 131.5,93.5C 125.501,90.7386 120.001,87.0719 115,82.5C 114.312,81.6683 114.479,81.0016 115.5,80.5C 117.565,79.1433 119.565,77.81 121.5,76.5 Z M 153.5,79.5 C 157.316,77.6494 160.316,78.6494 162.5,82.5C 161.436,86.1919 160.269,89.8586 159,93.5C 157.237,88.6944 155.404,84.0277 153.5,79.5 Z M 151.5,79.5 C 153.901,84.2055 155.401,89.2055 156,94.5C 155.5,95 155,95.5 154.5,96C 148.472,96.8303 142.472,96.6636 136.5,95.5C 141.522,90.1463 146.522,84.813 151.5,79.5 Z M 164.5,83.5 C 170.735,83.0433 175.569,85.71 179,91.5C 179.699,94.3216 178.532,95.9883 175.5,96.5C 173.929,95.6906 172.262,95.3573 170.5,95.5C 169.54,90.9136 167.54,86.9136 164.5,83.5 Z M 109.5,83.5 C 110.805,85.3972 111.471,87.7305 111.5,90.5C 111.413,94.5853 110.413,98.252 108.5,101.5C 103.726,101.988 99.0597,102.988 94.5,104.5C 93.6858,102.048 94.1858,99.7151 96,97.5C 100.758,92.9114 105.258,88.2447 109.5,83.5 Z M 113.5,84.5 C 118.409,87.3953 123.075,90.7286 127.5,94.5C 128.386,95.325 128.719,96.325 128.5,97.5C 124.441,98.1241 120.441,98.6241 116.5,99C 115.667,98.1667 114.833,97.3333 114,96.5C 113.501,92.5138 113.334,88.5138 113.5,84.5 Z M 163.5,84.5 C 165.454,88.4081 167.454,92.4081 169.5,96.5C 169.167,97.5 168.5,98.1667 167.5,98.5C 165.107,97.9052 163.273,96.5719 162,94.5C 161.847,91.1001 162.347,87.7667 163.5,84.5 Z M 181.5,95.5 C 185.791,98.0759 187.291,101.743 186,106.5C 189.312,108.605 190.479,111.438 189.5,115C 185.356,116.244 181.189,117.411 177,118.5C 175.72,118.387 174.887,117.72 174.5,116.5C 176.641,109.409 178.975,102.409 181.5,95.5 Z M 178.5,97.5 C 178.737,98.791 178.404,99.791 177.5,100.5C 175.871,98.8041 176.204,97.8041 178.5,97.5 Z M 136.5,98.5 C 142.509,98.3338 148.509,98.5005 154.5,99C 155.804,99.804 156.471,100.971 156.5,102.5C 156.054,106.738 154.22,110.072 151,112.5C 145.616,108.281 140.783,103.614 136.5,98.5 Z M 122.5,99.5 C 125.983,98.9159 128.983,99.7492 131.5,102C 130.62,103.356 130.286,104.856 130.5,106.5C 129.178,106.33 128.011,106.663 127,107.5C 123.579,105.539 120.079,103.706 116.5,102C 118.502,100.981 120.502,100.148 122.5,99.5 Z M 162.5,99.5 C 164.977,99.0508 166.977,99.7175 168.5,101.5C 164.507,105.324 160.34,108.991 156,112.5C 156.169,109.481 156.836,106.481 158,103.5C 160.118,102.717 161.618,101.384 162.5,99.5 Z M 134.5,100.5 C 139.625,104.484 144.459,108.817 149,113.5C 149.617,114.449 149.451,115.282 148.5,116C 143.314,119.556 138.814,119.056 135,114.5C 134.808,110.78 133.975,107.28 132.5,104C 132.862,102.566 133.528,101.399 134.5,100.5 Z M 177.5,100.5 C 176.334,105.83 174.668,110.997 172.5,116C 170.464,116.454 168.63,117.287 167,118.5C 163.906,117.434 160.74,116.768 157.5,116.5C 157.351,115.448 157.517,114.448 158,113.5C 162,110.167 166,106.833 170,103.5C 173.529,105.147 176.029,104.147 177.5,100.5 Z M 108.5,104.5 C 107.5,104.833 106.833,105.5 106.5,106.5C 105.5,106.833 104.833,107.5 104.5,108.5C 101.5,110.833 98.8333,113.5 96.5,116.5C 92.2985,120.718 89.6318,119.718 88.5,113.5C 89.1985,109.967 91.1985,107.467 94.5,106C 99.1306,105.218 103.631,104.051 108,102.5C 108.464,103.094 108.631,103.761 108.5,104.5 Z M 96.5,117.5 C 99.5,115.167 102.167,112.5 104.5,109.5C 105.5,109.167 106.167,108.5 106.5,107.5C 107.833,106.833 108.833,105.833 109.5,104.5C 111.936,106.017 114.102,105.684 116,103.5C 119.088,105.294 122.254,106.961 125.5,108.5C 126.583,109.365 126.749,110.365 126,111.5C 121.457,114.105 116.791,116.438 112,118.5C 109.099,115.682 106.599,116.016 104.5,119.5C 101.216,120.657 97.8823,120.824 94.5,120C 95.3805,119.292 96.0472,118.458 96.5,117.5 Z M 125.5,113.5 C 126.043,113.56 126.376,113.893 126.5,114.5C 124.808,116.359 123.308,118.359 122,120.5C 121.13,119.892 120.63,119.059 120.5,118C 122.043,116.287 123.709,114.787 125.5,113.5 Z M 128.5,114.5 C 130.199,114.34 131.866,114.506 133.5,115C 134.453,116.955 135.787,118.622 137.5,120C 136.139,121.584 135.472,123.418 135.5,125.5C 133.418,125.472 131.584,126.139 130,127.5C 128.559,126.74 127.059,126.074 125.5,125.5C 124.756,124.009 124.09,122.509 123.5,121C 125.765,119.242 127.432,117.075 128.5,114.5 Z M 117.5,117.5 C 119.984,119.028 119.818,120.694 117,122.5C 115.969,125.856 117.136,127.856 120.5,128.5C 122.029,128.471 123.196,127.804 124,126.5C 128.544,128.116 131.377,131.283 132.5,136C 132.561,137.711 131.894,139.044 130.5,140C 124.077,140.229 117.743,141.063 111.5,142.5C 110.469,143.7 109.635,145.034 109,146.5C 108.333,141.167 108.333,135.833 109,130.5C 109.718,126.52 110.884,122.854 112.5,119.5C 114.553,119.598 116.22,118.931 117.5,117.5 Z M 188.5,117.5 C 193.268,127.831 190.268,135.331 179.5,140C 173.553,141.129 168.553,139.462 164.5,135C 165.337,133.989 165.67,132.822 165.5,131.5C 168.635,131.452 170.302,129.785 170.5,126.5C 176.204,123.648 182.204,120.648 188.5,117.5 Z M 145.5,118.5 C 148.29,118.222 150.79,118.889 153,120.5C 157.377,118.166 161.877,117.999 166.5,120C 167.973,120.71 168.64,121.876 168.5,123.5C 165.61,123.278 162.943,123.945 160.5,125.5C 154.506,123.668 148.506,121.834 142.5,120C 143.737,119.768 144.737,119.268 145.5,118.5 Z M 96.5,121.5 C 100.397,120.97 103.73,121.97 106.5,124.5C 107.623,132.831 107.623,141.165 106.5,149.5C 98.9424,149.11 94.7757,145.11 94,137.5C 87.3543,130.592 88.1876,125.259 96.5,121.5 Z M 138.5,121.5 C 145.986,122.883 153.319,124.883 160.5,127.5C 162.668,129.804 163.501,132.471 163,135.5C 155.261,133.418 147.428,131.584 139.5,130C 138.743,128.488 137.743,127.154 136.5,126C 137.582,124.67 138.249,123.17 138.5,121.5 Z M 137.5,131.5 C 145.862,133.139 154.195,134.973 162.5,137C 154.272,149.415 144.772,150.582 134,140.5C 133.307,136.742 134.474,133.742 137.5,131.5 Z M 126.5,141.5 C 127.552,141.351 128.552,141.517 129.5,142C 127.974,143.887 125.974,144.887 123.5,145C 121.017,152.677 116.517,154.51 110,150.5C 109.94,147.518 111.274,145.185 114,143.5C 118.316,142.92 122.483,142.253 126.5,141.5 Z"/></g>
<g><path style="opacity:1" fill="#d563ef" d="M 363.5,92.5 C 372.391,90.8959 379.057,93.8959 383.5,101.5C 381.5,102.833 379.5,104.167 377.5,105.5C 373.339,99.2945 368.006,98.1279 361.5,102C 357.5,109 357.5,116 361.5,123C 368.803,126.844 374.136,125.01 377.5,117.5C 379.179,118.782 381.013,119.782 383,120.5C 382.561,124.965 380.395,128.465 376.5,131C 360.266,135.225 351.266,129.058 349.5,112.5C 349.288,102.212 353.955,95.5457 363.5,92.5 Z"/></g>
<g><path style="opacity:1" fill="#da63f4" d="M 207.5,92.5 C 209.932,92.6357 212.432,92.9691 215,93.5C 215.333,102.833 215.667,112.167 216,121.5C 221.061,126.635 225.728,126.302 230,120.5C 230.168,111.149 230.668,101.816 231.5,92.5C 233.727,93.0525 236.061,93.0525 238.5,92.5C 238.666,102.839 238.5,113.172 238,123.5C 235.217,130.063 230.217,133.063 223,132.5C 217.305,132.826 212.638,130.826 209,126.5C 207.567,115.244 207.067,103.91 207.5,92.5 Z"/></g>
<g><path style="opacity:1" fill="#d361ec" d="M 244.5,92.5 C 254.167,92.5 263.833,92.5 273.5,92.5C 273.5,95.1667 273.5,97.8333 273.5,100.5C 269.833,100.5 266.167,100.5 262.5,100.5C 262.5,110.833 262.5,121.167 262.5,131.5C 259.833,131.5 257.167,131.5 254.5,131.5C 254.5,121.167 254.5,110.833 254.5,100.5C 250.833,100.5 247.167,100.5 243.5,100.5C 243.279,97.7212 243.612,95.0545 244.5,92.5 Z"/></g>
<g><path style="opacity:1" fill="#cf60e8" d="M 279.5,92.5 C 284.844,92.334 290.177,92.5006 295.5,93C 305.368,93.9114 308.868,99.078 306,108.5C 304.457,110.378 302.624,111.878 300.5,113C 304.809,118.417 307.475,124.583 308.5,131.5C 305.813,131.664 303.146,131.497 300.5,131C 298.881,126.135 296.881,121.468 294.5,117C 292.19,116.503 289.857,116.337 287.5,116.5C 287.5,121.5 287.5,126.5 287.5,131.5C 284.552,131.777 281.719,131.444 279,130.5C 278.639,117.797 278.806,105.131 279.5,92.5 Z M 287.5,99.5 C 291.257,99.0708 294.757,99.7375 298,101.5C 299.212,104.834 298.379,107.334 295.5,109C 292.854,109.497 290.187,109.664 287.5,109.5C 287.5,106.167 287.5,102.833 287.5,99.5 Z"/></g>
<g><path style="opacity:1" fill="#d462ed" d="M 323.5,92.5 C 326.919,92.444 330.419,92.7774 334,93.5C 338.308,106.093 342.808,118.593 347.5,131C 344.5,131.667 341.5,131.667 338.5,131C 337.5,128.667 336.5,126.333 335.5,124C 330.798,123.172 326.131,123.338 321.5,124.5C 320.423,126.729 319.756,129.063 319.5,131.5C 316.428,131.817 313.428,131.484 310.5,130.5C 315.236,117.959 319.569,105.292 323.5,92.5 Z M 328.5,102.5 C 329.848,106.692 331.514,110.859 333.5,115C 330.446,115.821 327.446,115.655 324.5,114.5C 326.044,110.535 327.377,106.535 328.5,102.5 Z"/></g>
<g><path style="opacity:1" fill="#d863f3" d="M 389.5,92.5 C 392.104,93.5304 394.771,93.5304 397.5,92.5C 397.334,97.8437 397.501,103.177 398,108.5C 401.807,103.059 405.973,97.8922 410.5,93C 413.057,93.2809 415.724,93.1142 418.5,92.5C 418.649,93.552 418.483,94.552 418,95.5C 413.592,100.652 409.425,105.985 405.5,111.5C 410.309,118.143 415.309,124.643 420.5,131C 417.167,131.667 413.833,131.667 410.5,131C 405.973,126.108 401.807,120.941 398,115.5C 397.501,120.823 397.334,126.156 397.5,131.5C 394.833,131.5 392.167,131.5 389.5,131.5C 389.5,118.5 389.5,105.5 389.5,92.5 Z"/></g>
<g><path style="opacity:0.719" fill="#9e9e9e" d="M 108.5,104.5 C 108.833,104.5 109.167,104.5 109.5,104.5C 108.833,105.833 107.833,106.833 106.5,107.5C 106.5,107.167 106.5,106.833 106.5,106.5C 106.833,105.5 107.5,104.833 108.5,104.5 Z"/></g>
<g><path style="opacity:0.71" fill="#b890be" d="M 106.5,106.5 C 106.5,106.833 106.5,107.167 106.5,107.5C 106.167,108.5 105.5,109.167 104.5,109.5C 104.5,109.167 104.5,108.833 104.5,108.5C 104.833,107.5 105.5,106.833 106.5,106.5 Z"/></g>
<g><path style="opacity:0.714" fill="#b293b7" d="M 104.5,108.5 C 104.5,108.833 104.5,109.167 104.5,109.5C 102.167,112.5 99.5,115.167 96.5,117.5C 96.5,117.167 96.5,116.833 96.5,116.5C 98.8333,113.5 101.5,110.833 104.5,108.5 Z"/></g>
</svg>
